#!OML:ASF I:\Actors\actors\Patient Classification 2\Patient 1\Session 1\actor1.ASF
:FULLY-SPECIFIED
:DEGREES
824
root -0.875181 18.5343 5.79363 -6.84732 -1.13475 -2.82738
lowerback 7.07513 0.604538 1.79268
upperback -0.714233 1.00251 0.880357
thorax -4.69676 0.461684 -0.204723
lowerneck -12.185 -1.4839 0.0199643
upperneck 25.6512 -2.36166 0.907801
head 10.1895 -0.983959 0.0269479
rclavicle -4.18069e-015 -5.66536e-015
rhumerus -49.5895 -6.55472 -83.6843
rradius 42.0848
rwrist 18.7008
rhand -5.15562 -29.6243
rfingers 7.12502
rthumb 20.6439 301.454
lclavicle -4.18069e-015 -5.66536e-015
lhumerus -45.1402 1.63025 90.8704
lradius 40.7345
lwrist -3.77081
lhand -9.92943 -20.5297
lfingers 7.12502
lthumb 16.0516 8.82543
rfemur 16.5307 4.83821 18.4248
rtibia 1.59028e-014
rfoot -21.0391 -13.0834
rtoes -3.19847
lfemur 4.04816 -7.23484 -11.6606
ltibia 21.5783
lfoot -22.0441 10.3745
ltoes -55.5922
825
root -0.872625 18.5362 5.78234 -6.84404 -1.10827 -2.80609
lowerback 7.08239 0.631422 1.79785
upperback -0.689575 1.03716 0.851455
thorax -4.67396 0.478624 -0.241315
lowerneck -12.0068 -1.49498 0.263522
upperneck 25.4172 -2.38056 0.728775
head 10.0645 -0.99273 -0.0771808
rclavicle -1.6319e-014 3.08116e-015
rhumerus -49.4539 -6.60841 -83.6969
rradius 42.1189
rwrist 18.7707
rhand -5.64279 -28.9798
rfingers 7.12502
rthumb 20.1757 302.048
lclavicle -1.6319e-014 3.08116e-015
lhumerus -45.0115 1.31762 91.0935
lradius 40.9594
lwrist -3.71258
lhand -9.9545 -20.1463
lfingers 7.12502
lthumb 16.0275 9.21079
rfemur 16.481 4.81833 18.3842
rtibia 3.81667e-014
rfoot -20.986 -13.1116
rtoes -3.34086
lfemur 3.97032 -7.21376 -11.6778
ltibia 21.6192
lfoot -22.0197 10.3351
ltoes -55.5443
826
root -0.870549 18.5372 5.77221 -6.87351 -1.09981 -2.82879
lowerback 7.07788 0.65118 1.79962
upperback -0.62721 1.06306 0.86667
thorax -4.60627 0.492443 -0.228911
lowerneck -11.9601 -1.50403 0.287778
upperneck 25.3116 -2.39901 0.738823
head 10.0173 -0.998796 -0.0790785
rclavicle 5.87036e-015 -5.26779e-015
rhumerus -49.2575 -6.63632 -83.6979
rradius 42.1682
rwrist 18.8775
rhand -6.62323 -27.8469
rfingers 7.12502
rthumb 19.2332 303.084
lclavicle 5.87036e-015 -5.26779e-015
lhumerus -44.8454 1.06992 91.3108
lradius 41.025
lwrist -3.4853
lhand -10.0837 -20.1907
lfingers 7.12502
lthumb 15.903 9.17636
rfemur 16.4772 4.8099 18.4013
rtibia -4.77083e-015
rfoot -20.9631 -13.11
rtoes -3.35072
lfemur 3.93074 -7.06731 -11.6195
ltibia 21.6546
lfoot -21.9251 10.2503
ltoes -55.6429
827
root -0.867664 18.5372 5.76281 -6.90385 -1.11675 -2.83905
lowerback 7.10794 0.661754 1.81298
upperback -0.584045 1.07838 0.869505
thorax -4.57784 0.500158 -0.235262
lowerneck -11.9926 -1.50215 0.270326
upperneck 25.3196 -2.406 0.789552
head 10.0275 -0.997561 -0.0595007
rclavicle 3.23025e-016 7.85199e-015
rhumerus -49.0571 -6.66911 -83.7358
rradius 42.1272
rwrist 18.9135
rhand -7.1602 -27.2775
rfingers 7.12502
rthumb 18.7167 303.603
lclavicle 3.23025e-016 7.85199e-015
lhumerus -44.7357 0.895886 91.4649
lradius 41.0953
lwrist -3.31545
lhand -10.1208 -20.1653
lfingers 7.12502
lthumb 15.8673 9.20456
rfemur 16.4833 4.82822 18.4085
rtibia 1.43125e-014
rfoot -20.991 -13.0699
rtoes -3.04636
lfemur 3.91133 -6.9343 -11.5855
ltibia 21.6832
lfoot -21.8449 10.1919
ltoes -55.7424
828
root -0.865203 18.5364 5.75274 -6.93578 -1.14542 -2.8007
lowerback 7.19086 0.675575 1.78778
upperback -0.570696 1.09548 0.847123
thorax -4.61045 0.508726 -0.247239
lowerneck -12.0954 -1.50911 0.154931
upperneck 25.4343 -2.42925 0.92987
head 10.0925 -1.00158 0.00514268
rclavicle -8.12532e-015 -6.85807e-015
rhumerus -48.9289 -6.70268 -83.8026
rradius 42.0543
rwrist 18.9696
rhand -7.24586 -27.1532
rfingers 7.12502
rthumb 18.6343 303.719
lclavicle -8.12532e-015 -6.85807e-015
lhumerus -44.6584 0.81873 91.5338
lradius 41.1079
lwrist -3.31281
lhand -10.1345 -20.133
lfingers 7.12502
lthumb 15.8541 9.23791
rfemur 16.4889 4.86451 18.3668
rtibia -9.54166e-015
rfoot -21.0085 -13.0336
rtoes -2.85301
lfemur 3.90488 -6.94569 -11.6421
ltibia 21.7127
lfoot -21.8573 10.2241
ltoes -55.716
829
root -0.863564 18.5366 5.74304 -6.96157 -1.15654 -2.78109
lowerback 7.26606 0.683971 1.72847
upperback -0.557468 1.10393 0.863968
thorax -4.64039 0.514384 -0.198395
lowerneck -12.2094 -1.53884 -0.145858
upperneck 25.5489 -2.47877 1.20973
head 10.1647 -1.01926 0.147309
rclavicle -3.73342e-015 3.18055e-015
rhumerus -48.8249 -6.66678 -83.8365
rradius 42.0004
rwrist 18.9495
rhand -6.64876 -27.7799
rfingers 7.12502
rthumb 19.2086 303.149
lclavicle -3.73342e-015 3.18055e-015
lhumerus -44.5692 0.865407 91.5892
lradius 41.0633
lwrist -3.41439
lhand -10.1617 -20.2094
lfingers 7.12502
lthumb 15.828 9.16362
rfemur 16.483 4.8804 18.3441
rtibia 3.18055e-015
rfoot -20.9921 -13.0331
rtoes -2.87782
lfemur 3.89067 -6.98629 -11.677
ltibia 21.7339
lfoot -21.8929 10.2373
ltoes -55.6572
830
root -0.86114 18.5372 5.73429 -6.97049 -1.14018 -2.80684
lowerback 7.30237 0.676935 1.71462
upperback -0.532373 1.09525 0.89572
thorax -4.63576 0.510964 -0.157085
lowerneck -12.2807 -1.57087 -0.346601
upperneck 25.5948 -2.52811 1.3954
head 10.2012 -1.03897 0.240099
rclavicle 1.77602e-014 5.31749e-015
rhumerus -48.7054 -6.58893 -83.8789
rradius 41.9383
rwrist 18.8019
rhand -5.45165 -29.1955
rfingers 7.12502
rthumb 20.3594 301.852
lclavicle 1.77602e-014 5.31749e-015
lhumerus -44.4732 0.936193 91.6346
lradius 40.9993
lwrist -3.50372
lhand -10.1633 -20.2831
lfingers 7.12502
lthumb 15.8264 9.09006
rfemur 16.4649 4.86275 18.3631
rtibia -1.27222e-014
rfoot -20.9702 -13.0469
rtoes -2.75664
lfemur 3.85652 -6.9497 -11.6377
ltibia 21.7415
lfoot -21.8776 10.1777
ltoes -55.6674
831
root -0.858901 18.5375 5.72513 -6.98538 -1.15751 -2.83402
lowerback 7.3638 0.682157 1.74027
upperback -0.514342 1.10579 0.898171
thorax -4.65107 0.515507 -0.170844
lowerneck -12.3192 -1.59921 -0.403494
upperneck 25.6233 -2.57697 1.47433
head 10.2216 -1.05735 0.271192
rclavicle -1.62631e-014 -1.04362e-014
rhumerus -48.6316 -6.5056 -83.9833
rradius 41.9577
rwrist 18.7699
rhand -5.43431 -29.2255
rfingers 7.12502
rthumb 20.3761 301.824
lclavicle -1.62631e-014 -1.04362e-014
lhumerus -44.4047 0.959457 91.6335
lradius 40.9071
lwrist -3.57268
lhand -10.1666 -20.23
lfingers 7.12502
lthumb 15.8232 9.14335
rfemur 16.4468 4.87822 18.3896
rtibia 2.22639e-014
rfoot -20.9398 -13.0863
rtoes -2.63905
lfemur 3.83411 -6.8772 -11.5925
ltibia 21.7473
lfoot -21.8397 10.1311
ltoes -55.6813
832
root -0.857527 18.5384 5.71565 -7.00648 -1.23034 -2.84598
lowerback 7.47005 0.70614 1.76348
upperback -0.511434 1.14201 0.888518
thorax -4.70683 0.532252 -0.199444
lowerneck -12.3385 -1.61798 -0.42509
upperneck 25.6447 -2.61088 1.51803
head 10.2346 -1.0697 0.285883
rclavicle -1.50207e-014 5.46658e-015
rhumerus -48.6042 -6.44762 -84.097
rradius 42.0309
rwrist 18.9965
rhand -6.57824 -27.7672
rfingers 7.12502
rthumb 19.2764 303.168
lclavicle -1.50207e-014 5.46658e-015
lhumerus -44.3653 0.998508 91.5954
lradius 40.7912
lwrist -3.6542
lhand -10.1951 -20.1617
lfingers 7.12502
lthumb 15.7957 9.21384
rfemur 16.4165 4.95062 18.4093
rtibia 4.77083e-014
rfoot -20.8848 -13.16
rtoes -2.87439
lfemur 3.82526 -6.7996 -11.5683
ltibia 21.761
lfoot -21.8391 10.1049
ltoes -55.6675
833
root -0.856192 18.5393 5.70835 -7.00834 -1.28387 -2.82958
lowerback 7.5362 0.716632 1.74757
upperback -0.505336 1.15564 0.878389
thorax -4.73768 0.539012 -0.20349
lowerneck -12.3496 -1.60569 -0.380748
upperneck 25.6389 -2.59393 1.48122
head 10.2332 -1.06189 0.267349
rclavicle 1.32565e-014 1.20265e-014
rhumerus -48.5733 -6.41725 -84.1957
rradius 42.0482
rwrist 19.0875
rhand -6.58412 -27.7012
rfingers 7.12502
rthumb 19.2708 303.234
lclavicle 1.32565e-014 1.20265e-014
lhumerus -44.3275 1.06686 91.5529
lradius 40.661
lwrist -3.74517
lhand -10.2393 -20.2268
lfingers 7.12502
lthumb 15.7532 9.15212
rfemur 16.3777 5.00742 18.3936
rtibia -1.27222e-014
rfoot -20.8646 -13.1895
rtoes -3.1121
lfemur 3.79507 -6.69755 -11.5673
ltibia 21.7806
lfoot -21.8231 10.0471
ltoes -55.6549
834
root -0.855013 18.54 5.703 -6.97764 -1.32382 -2.84157
lowerback 7.54477 0.716496 1.75369
upperback -0.507581 1.15609 0.874671
thorax -4.74466 0.53896 -0.210976
lowerneck -12.3797 -1.58726 -0.372671
upperneck 25.671 -2.57172 1.48562
head 10.2505 -1.04992 0.269969
rclavicle 1.09518e-014 2.5842e-015
rhumerus -48.5576 -6.3681 -84.3234
rradius 42.0556
rwrist 18.9339
rhand -4.44763 -29.9483
rfingers 7.12502
rthumb 21.3241 301.205
lclavicle 1.09518e-014 2.5842e-015
lhumerus -44.2971 1.13458 91.5019
lradius 40.4868
lwrist -3.84372
lhand -10.3364 -20.3998
lfingers 7.12502
lthumb 15.6596 8.98643
rfemur 16.3245 5.04498 18.4074
rtibia -6.36111e-015
rfoot -20.9012 -13.1693
rtoes -2.92156
lfemur 3.73958 -6.66099 -11.5472
ltibia 21.8042
lfoot -21.7924 10.0306
ltoes -55.5919
835
root -0.853514 18.5408 5.69789 -6.93341 -1.37573 -2.89677
lowerback 7.55057 0.720001 1.82021
upperback -0.530417 1.16726 0.872035
thorax -4.77026 0.542441 -0.252571
lowerneck -12.4081 -1.58985 -0.427534
upperneck 25.7434 -2.584 1.55879
head 10.2844 -1.0516 0.303297
rclavicle 1.67725e-015 3.67752e-015
rhumerus -48.5861 -6.30923 -84.4722
rradius 42.0977
rwrist 18.8831
rhand -6.68006 -28.1351
rfingers 7.12502
rthumb 19.1785 302.79
lclavicle 1.67725e-015 3.67752e-015
lhumerus -44.2977 1.23343 91.4085
lradius 40.2945
lwrist -4.00093
lhand -10.3864 -20.519
lfingers 7.12502
lthumb 15.6115 8.87102
rfemur 16.2517 5.08779 18.4695
rtibia 2.54444e-014
rfoot -20.8937 -13.1763
rtoes -2.80716
lfemur 3.67391 -6.64321 -11.4834
ltibia 21.8307
lfoot -21.7864 10.0357
ltoes -55.5122
836
root -0.852043 18.5411 5.69382 -6.91143 -1.42883 -2.92892
lowerback 7.57271 0.735954 1.86687
upperback -0.55045 1.19327 0.86225
thorax -4.80211 0.553605 -0.292377
lowerneck -12.4128 -1.60222 -0.45901
upperneck 25.7809 -2.60222 1.58549
head 10.3001 -1.05961 0.315742
rclavicle 7.66563e-015 1.98785e-014
rhumerus -48.6279 -6.28034 -84.6045
rradius 42.1175
rwrist 18.9093
rhand -7.46079 -27.4465
rfingers 7.12502
rthumb 18.4276 303.406
lclavicle 7.66563e-015 1.98785e-014
lhumerus -44.3105 1.3839 91.2728
lradius 40.1019
lwrist -4.30239
lhand -10.3631 -20.612
lfingers 7.12502
lthumb 15.634 8.77629
rfemur 16.1988 5.13606 18.5068
rtibia -1.27222e-014
rfoot -20.856 -13.2135
rtoes -3.04881
lfemur 3.63149 -6.57875 -11.4344
ltibia 21.8543
lfoot -21.8002 10.025
ltoes -55.4966
837
root -0.85103 18.5421 5.69082 -6.8834 -1.48647 -2.93222
lowerback 7.5706 0.75788 1.86433
upperback -0.557925 1.2218 0.850762
thorax -4.808 0.56754 -0.306175
lowerneck -12.4407 -1.60823 -0.433021
upperneck 25.8109 -2.60418 1.53563
head 10.3154 -1.06338 0.29314
rclavicle 2.73329e-015 -5.66536e-015
rhumerus -48.6331 -6.27867 -84.714
rradius 42.0758
rwrist 18.9597
rhand -7.59326 -27.3124
rfingers 7.12502
rthumb 18.3002 303.528
lclavicle 2.73329e-015 -5.66536e-015
lhumerus -44.2982 1.55208 91.1298
lradius 39.8987
lwrist -4.60511
lhand -10.4086 -20.623
lfingers 7.12502
lthumb 15.5902 8.76872
rfemur 16.147 5.19229 18.5146
rtibia 7.95139e-015
rfoot -20.849 -13.2532
rtoes -3.2164
lfemur 3.5972 -6.53728 -11.4223
ltibia 21.8695
lfoot -21.8232 10.0064
ltoes -55.4491
838
root -0.850468 18.5437 5.68855 -6.82889 -1.53053 -2.93491
lowerback 7.53019 0.762209 1.84093
upperback -0.569816 1.22416 0.841696
thorax -4.79782 0.569244 -0.302171
lowerneck -12.4172 -1.60529 -0.328033
upperneck 25.8122 -2.59648 1.42945
head 10.308 -1.06232 0.238838
rclavicle -2.61526e-015 -2.28602e-015
rhumerus -48.6167 -6.25971 -84.8082
rradius 42.002
rwrist 19.0316
rhand -7.71436 -27.1945
rfingers 7.12502
rthumb 18.1837 303.635
lclavicle -2.61526e-015 -2.28602e-015
lhumerus -44.337 1.49509 91.0925
lradius 39.759
lwrist -4.53202
lhand -10.5809 -20.5504
lfingers 7.12502
lthumb 15.4242 8.8541
rfemur 16.0736 5.23407 18.5191
rtibia 4.29375e-014
rfoot -20.816 -13.2878
rtoes -3.33974
lfemur 3.54334 -6.53427 -11.4139
ltibia 21.879
lfoot -21.8781 9.9827
ltoes -55.3323
